# xmcd
#
# Track frame offsets:
#	150
#	14237
#	30236
#	44665
#	61339
#	81109
#	102434
#	117556
#	130634
#	144221
#	160002
#
# Disc length: 2340 seconds
#
# Revision: 0
# Processed by: cddbd v1.5.2PL0 Copyright (c) Steve Scherf et al.
# Submitted via: audiograbber 1.83.01
#
DISCID=8e09220b
DTITLE=Cadillac Black - The Cadillac Black
DYEAR=2012
DGENRE=Country
TTITLE0=I'm Southern
TTITLE1=Tennessee Mojo
TTITLE2=Get Your Buzz On
TTITLE3=Back It Up
TTITLE4=Down To The River
TTITLE5=Days Of Gold
TTITLE6=Turn It On
TTITLE7=I'm Rockin'
TTITLE8=Life
TTITLE9=The Sticks
TTITLE10=Whiskey Soaked Redemption
EXTD=
EXTT0=
EXTT1=
EXTT2=
EXTT3=
EXTT4=
EXTT5=
EXTT6=
EXTT7=
EXTT8=
EXTT9=
EXTT10=
PLAYORDER=
